<?xml version="1.0" encoding="utf-8"?>
<!-- Svg Vector Icons : http://www.onlinewebfonts.com/icon -->
<!DOCTYPE svg PUBLIC "-//W3C//DTD SVG 1.1//EN" "http://www.w3.org/Graphics/SVG/1.1/DTD/svg11.dtd">
<svg version="1.1" xmlns="http://www.w3.org/2000/svg" xmlns:xlink="http://www.w3.org/1999/xlink" x="0px" y="0px" viewBox="0 0 1000 1000" enable-background="new 0 0 1000 1000" xml:space="preserve">
<metadata> Svg Vector Icons : http://www.onlinewebfonts.com/icon </metadata>
<g><path d="M500,572.4c-155.1,0-281.2-126.2-281.2-281.2C218.8,136.2,344.9,10,500,10c155.1,0,281.2,126.2,281.2,281.2S655.1,572.4,500,572.4z M500,94.1c-108.7,0-197.1,88.4-197.1,197.1c0,108.7,88.4,197.1,197.1,197.1s197.1-88.4,197.1-197.1C697.1,182.5,608.7,94.1,500,94.1z"/><path d="M868.4,990H131.6c-26.1,0-50.6-11.5-67.3-31.7c-16.5-19.9-23.2-45.8-18.5-71c41-218.3,232.1-376.7,454.2-376.7c222.1,0,413.1,158.4,454.2,376.7c4.7,25.2-2,51.1-18.5,71C919,978.5,894.5,990,868.4,990z M500,594.8c-181.7,0-337.9,129.6-371.5,308.1c-0.1,0.3-0.2,0.8,0.6,1.7c0.5,0.6,1.3,1.2,2.5,1.2h736.8c1.2,0,2.1-0.7,2.5-1.2c0.7-0.9,0.6-1.5,0.6-1.7C837.9,724.4,681.7,594.8,500,594.8z"/></g>
</svg>